# xmcd
#
# Track frame offsets:
# 150
# 18149
# 36295
# 50160
# 67080
# 84310
# 89440
# 115266
# 128354
# 145211
# 171368
# 183554
#
# Disc length: 2465 seconds
#
#
# Revision: 0
# Processed by: cddbd v1.5.1PL2 Copyright (c) Steve Scherf et al.
# Submitted via: FreeRIP 2.944 
#
DISCID=a3099f0c
DTITLE=Hobó Blues Band - Vadászat II
DYEAR=1900
DGENRE=Blues
TTITLE0=A vadállatok tánca
TTITLE1=A tigris és a medve utolsó találkozása
TTITLE2=Az áldozatok áriája
TTITLE3=Az üldözés rövid, de véres
TTITLE4=A zsákmány terítéken, szépen elrendezve
TTITLE5=A vak zenészek kara lassan lépked a fûben
TTITLE6=A vadászok bevonulása és az ünnepség kezdete
TTITLE7=A lakoma
TTITLE8=A vendégsereg tánca
TTITLE9=Az orgia
TTITLE10=A bolond levele a kisfiúnak
TTITLE11=Ez elment vadászni
EXTD=
EXTT0=
EXTT1=
EXTT2=
EXTT3=
EXTT4=
EXTT5=
EXTT6=
EXTT7=
EXTT8=
EXTT9=
EXTT10=
EXTT11=
PLAYORDER=
